<svg xmlns="http://www.w3.org/2000/svg" xmlns:xlink="http://www.w3.org/1999/xlink" width="800" height="600" viewBox="0 0 800 600">
  <style>
    .actor {
      fill: #f5f5f5;
      stroke: #333;
      stroke-width: 2;
    }
    .usecase {
      fill: #e1f5fe;
      stroke: #0288d1;
      stroke-width: 2;
    }
    .system {
      fill: none;
      stroke: #757575;
      stroke-width: 2;
      stroke-dasharray: 5,5;
    }
    .label {
      font-family: Arial, sans-serif;
      font-size: 14px;
      text-anchor: middle;
    }
    .actor-label {
      font-family: Arial, sans-serif;
      font-size: 14px;
      text-anchor: middle;
    }
    .title {
      font-family: Arial, sans-serif;
      font-size: 20px;
      font-weight: bold;
      text-anchor: middle;
    }
    .connection {
      stroke: #333;
      stroke-width: 1.5;
      fill: none;
    }
    .extends {
      stroke: #333;
      stroke-width: 1.5;
      stroke-dasharray: 4,4;
      fill: none;
      marker-end: url(#arrow);
    }
  </style>

  <defs>
    <marker id="arrow" markerWidth="10" markerHeight="10" refX="9" refY="3" orient="auto" markerUnits="strokeWidth">
      <path d="M0,0 L0,6 L9,3 z" fill="#333" />
    </marker>
  </defs>

  <!-- Title -->
  <text x="400" y="30" class="title">Anwendungsfalldiagramm - Mitfahrbörse BSZ Vogtland</text>

  <!-- System Boundary -->
  <rect x="200" y="60" width="400" height="480" rx="10" ry="10" class="system" />
  <text x="400" y="80" class="label">Mitfahrbörse System</text>

  <!-- Actors -->
  <circle cx="100" cy="200" r="30" class="actor" />
  <line x1="100" y1="230" x2="100" y2="300" class="actor" />
  <line x1="70" y1="260" x2="130" y2="260" class="actor" />
  <line x1="100" y1="300" x2="70" y2="350" class="actor" />
  <line x1="100" y1="300" x2="130" y2="350" class="actor" />
  <text x="100" y="380" class="actor-label">Fahrer</text>

  <circle cx="700" cy="200" r="30" class="actor" />
  <line x1="700" y1="230" x2="700" y2="300" class="actor" />
  <line x1="670" y1="260" x2="730" y2="260" class="actor" />
  <line x1="700" y1="300" x2="670" y2="350" class="actor" />
  <line x1="700" y1="300" x2="730" y2="350" class="actor" />
  <text x="700" y="380" class="actor-label">Mitfahrer</text>

  <!-- Use Cases -->
  <ellipse cx="400" cy="150" rx="120" ry="40" class="usecase" />
  <text x="400" y="155" class="label">Mitfahrgelegenheit anbieten</text>

  <ellipse cx="400" cy="250" rx="120" ry="40" class="usecase" />
  <text x="400" y="255" class="label">Mitfahrgelegenheit suchen</text>

  <ellipse cx="400" cy="350" rx="120" ry="40" class="usecase" />
  <text x="400" y="355" class="label">Mitfahrgelegenheit anzeigen</text>

  <ellipse cx="400" cy="450" rx="120" ry="40" class="usecase" />
  <text x="400" y="455" class="label">Mitfahrgelegenheit bearbeiten</text>

  <!-- Extended Use Cases -->
  <ellipse cx="250" cy="300" rx="100" ry="30" class="usecase" />
  <text x="250" y="305" class="label">Umkreissuche</text>

  <!-- Connections -->
  <line x1="130" y1="200" x2="280" y2="150" class="connection" />
  <line x1="130" y1="200" x2="280" y2="450" class="connection" />

  <line x1="670" y1="200" x2="520" y2="250" class="connection" />
  <line x1="670" y1="200" x2="520" y2="350" class="connection" />

  <!-- Extends Relationship -->
  <path d="M280,280 C300,270 320,260 340,260" class="extends" />
  <text x="310" y="250" class="label" style="font-size: 12px;">«extends»</text>
</svg>
